<?xml version="1.0" standalone="no"?>
<!DOCTYPE svg PUBLIC "-//W3C//DTD SVG 20010904//EN"
 "http://www.w3.org/TR/2001/REC-SVG-20010904/DTD/svg10.dtd">
<svg version="1.0" xmlns="http://www.w3.org/2000/svg"
 width="1280.000000pt" height="1280.000000pt" viewBox="0 0 1280.000000 1280.000000"
 preserveAspectRatio="xMidYMid meet">
<metadata>
Created by potrace 1.16, written by Peter Selinger 2001-2019
</metadata>
<g transform="translate(0.000000,1280.000000) scale(0.100000,-0.100000)"
fill="#000000" stroke="none">
<path d="M8 8038 c-2 -2614 -2 -5490 0 -6390 l2 -1638 6390 0 6390 0 0 6390 0
6390 -6390 0 -6390 0 -2 -4752z m7538 3377 c1110 -885 1439 -1152 1436 -1165
-2 -7 3 -10 12 -7 8 3 20 -1 26 -9 8 -9 9 -14 2 -14 -6 0 -13 6 -15 13 -4 8
-6 9 -6 0 -1 -6 13 -21 29 -33 17 -12 30 -25 30 -30 0 -5 -13 -7 -30 -3 -19 3
-30 1 -30 -5 0 -7 -7 -9 -17 -5 -15 6 -15 7 3 13 18 6 17 8 -4 19 -19 10 -22
9 -19 -6 2 -10 8 -27 14 -39 10 -16 8 -22 -8 -32 -17 -11 -19 -9 -19 15 l-1
28 -20 -25 c-11 -14 -33 -39 -49 -57 -15 -17 -31 -41 -34 -51 -4 -11 -16 -22
-28 -25 -15 -4 -19 -11 -16 -25 3 -11 2 -26 -3 -33 -4 -7 -3 -21 2 -30 7 -14
5 -16 -14 -11 -12 3 -25 9 -28 15 -4 5 -9 5 -13 -2 -4 -6 -2 -11 3 -11 6 0 11
-9 11 -19 0 -11 6 -21 13 -24 6 -2 8 -8 4 -13 -4 -5 -12 -2 -18 6 -8 13 -10
13 -18 0 -6 -8 -13 -11 -18 -7 -4 5 -1 12 7 17 8 5 11 12 8 16 -4 4 -20 -7
-35 -23 -31 -33 -73 -52 -73 -33 0 7 -6 8 -19 0 -25 -13 -58 -13 -66 0 -4 6 1
7 12 4 15 -5 16 -4 3 5 -20 14 -39 14 -36 -1 3 -24 18 -39 33 -34 8 3 12 2 8
-3 -3 -5 61 -62 142 -127 82 -64 152 -120 156 -124 7 -6 -17 -206 -58 -470 -8
-52 -42 -288 -76 -525 -34 -236 -65 -457 -70 -490 -5 -32 -8 -63 -7 -67 2 -4
149 51 327 123 178 71 326 128 328 125 5 -4 0 -35 -62 -441 -19 -126 -71 -468
-115 -759 -44 -291 -81 -530 -83 -531 -1 -1 -166 -66 -367 -145 -201 -78 -536
-210 -745 -292 -758 -298 -1224 -479 -1240 -483 -5 -1 -20 -6 -33 -11 -13 -6
-40 -8 -60 -5 -24 3 -30 6 -17 9 34 7 36 17 3 17 -20 0 -34 7 -42 20 -6 11
-14 22 -17 25 -12 10 -18 40 -8 40 5 0 3 12 -5 28 -16 32 -18 84 -3 94 12 7
-10 69 -29 80 -7 5 -10 17 -7 27 3 11 0 28 -6 38 -10 17 -10 16 -11 -4 0 -13
-4 -23 -10 -23 -21 0 -9 39 20 61 16 13 30 30 30 36 0 7 12 20 28 30 15 10 29
20 32 23 3 3 28 21 55 40 80 55 87 62 73 72 -9 5 -6 8 10 8 12 0 39 9 59 20
21 11 44 20 51 20 7 0 10 5 7 10 -3 6 -1 10 5 10 6 0 8 5 4 12 -5 7 -3 8 5 4
7 -5 21 0 32 10 15 13 19 14 19 3 1 -10 4 -9 11 4 5 9 16 17 23 17 8 0 19 7
26 15 7 8 16 12 21 9 5 -3 6 2 3 11 -5 11 -2 14 12 8 12 -4 15 -3 10 5 -4 7
-1 12 8 12 19 0 90 32 94 43 2 4 12 7 23 7 10 0 19 4 19 9 0 5 12 11 28 13 18
2 22 5 12 9 -17 7 -243 -76 -248 -91 -2 -6 -7 -8 -12 -5 -4 3 -129 -43 -276
-101 -148 -58 -333 -130 -411 -160 l-142 -56 -247 194 c-247 193 -367 287
-440 343 -22 16 -59 46 -84 66 -25 20 -142 112 -260 204 -118 93 -217 172
-220 177 -4 4 -11 -34 -18 -85 -21 -166 -83 -582 -90 -600 -6 -16 -16 -11 -77
36 -39 29 -176 133 -305 231 -129 98 -248 191 -265 206 -16 15 -181 143 -365
285 -184 142 -338 260 -342 264 -6 5 52 407 182 1256 30 194 55 363 119 780
17 110 42 272 57 360 14 88 26 171 27 184 2 24 27 44 27 22 0 -6 7 -11 15 -11
8 0 15 2 15 4 0 2 3 11 6 20 4 10 1 16 -9 16 -9 0 -18 4 -22 9 -3 6 4 9 15 8
11 -1 20 -5 20 -9 0 -4 21 -6 48 -4 26 2 32 1 14 -1 -18 -2 -30 -8 -27 -14 4
-5 1 -9 -5 -9 -6 0 -8 -4 -5 -10 3 -5 21 -10 40 -10 18 0 35 -4 37 -9 2 -5 33
-10 70 -13 51 -3 68 -1 68 9 0 9 -16 13 -50 13 -31 0 -50 4 -50 11 0 8 17 10
58 5 31 -4 87 -8 124 -11 37 -2 75 -9 85 -15 16 -10 14 -11 -9 -7 -17 2 -29
-1 -32 -10 -4 -10 1 -12 19 -7 18 4 27 1 31 -10 3 -9 12 -16 20 -16 17 0 19
-27 2 -33 -7 -3 -3 -6 10 -6 19 -1 22 -5 17 -21 -3 -11 -3 -20 2 -20 16 0 33
-85 34 -173 1 -48 6 -90 10 -93 5 -3 9 -2 9 3 0 9 40 282 73 498 21 139 25
151 47 162 14 6 232 95 485 196 835 336 940 378 948 386 4 4 -114 103 -263
220 -148 117 -270 216 -270 221 0 4 134 62 298 129 163 67 329 135 367 152
363 152 922 378 932 376 7 -1 272 -209 589 -462z m-2184 -6321 c67 -9 131 -20
141 -25 15 -8 17 -25 17 -118 0 -78 -4 -110 -12 -113 -7 -2 -53 -1 -103 3 -49
4 -152 8 -228 8 l-139 1 -29 -29 c-41 -41 -39 -84 4 -125 19 -17 109 -71 202
-121 178 -95 258 -157 299 -229 75 -130 54 -321 -48 -433 -45 -51 -134 -98
-222 -119 -55 -13 -101 -15 -224 -11 -170 6 -277 25 -297 53 -13 18 -18 149
-7 191 8 29 16 31 114 22 47 -5 140 -9 207 -9 166 -2 203 19 203 115 0 54 -44
93 -226 201 -187 110 -262 173 -302 248 -25 47 -27 61 -27 166 0 100 3 121 22
156 46 86 131 144 247 169 85 19 261 18 408 -1z m1068 6 c130 -16 120 -6 120
-125 0 -93 -2 -105 -19 -115 -12 -6 -103 -10 -226 -10 -205 0 -206 0 -230 -25
-24 -23 -25 -31 -25 -135 l0 -110 226 0 c136 0 233 -4 245 -10 17 -10 19 -22
19 -108 0 -63 -4 -102 -12 -110 -9 -9 -77 -12 -245 -12 l-233 0 0 -114 c0 -63
4 -126 10 -140 17 -45 41 -50 270 -56 l215 -5 3 -107 c2 -95 1 -107 -15 -112
-83 -26 -418 -35 -515 -15 -123 27 -199 86 -240 187 -23 56 -23 63 -23 467 0
402 0 411 22 465 41 99 128 166 245 189 62 13 309 13 408 1z m1196 -13 c14
-13 17 -192 5 -216 -11 -20 -19 -21 -160 -21 -125 0 -150 -2 -155 -16 -3 -8
-6 -243 -5 -521 0 -404 -3 -508 -13 -514 -7 -5 -68 -9 -135 -9 -97 0 -125 3
-137 16 -14 14 -16 76 -16 530 l0 514 -148 0 c-102 0 -152 4 -160 12 -19 19
-16 202 4 223 14 14 64 15 464 13 247 -2 452 -7 456 -11z m455 3 c18 -10 19
-28 19 -643 0 -479 -3 -636 -12 -645 -17 -17 -259 -17 -276 0 -9 9 -12 166
-12 645 0 591 1 633 18 642 23 14 238 14 263 1z m3255 -1715 c41 -17 69 -71
59 -116 -9 -41 -58 -79 -104 -79 -45 0 -74 19 -91 60 l-12 30 -3994 0 c-2656
0 -3994 3 -3994 10 0 7 1338 10 3993 10 l3992 0 15 33 c9 18 30 40 50 49 42
22 42 22 86 3z m-8028 -277 l-3 -53 -65 0 -65 0 -3 39 c-5 62 0 66 73 66 l66
0 -3 -52z m5570 0 l-3 -53 -65 0 -65 0 -3 53 -3 52 71 0 71 0 -3 -52z m680
-260 l2 -308 -65 0 -65 0 0 310 0 311 63 -3 62 -3 3 -307z m-7815 287 l57 -6
0 -56 0 -56 -101 7 c-83 6 -105 4 -125 -9 -13 -8 -24 -21 -24 -28 0 -20 39
-52 100 -82 30 -15 74 -40 96 -56 106 -72 94 -230 -21 -289 -44 -22 -61 -25
-145 -24 -52 1 -107 7 -122 13 -26 10 -28 15 -28 62 l0 51 93 -7 c113 -8 147
2 147 43 0 35 -21 55 -116 110 -130 75 -168 150 -126 245 23 53 61 76 137 86
50 7 70 7 178 -4z m9405 -52 l3 -53 -75 0 -76 0 0 -245 0 -245 -70 0 -70 0 0
245 0 245 -75 0 -75 0 0 48 c0 27 3 52 7 56 4 3 102 5 217 4 l211 -3 3 -52z
m217 -243 l0 -295 -67 -3 -68 -3 0 301 0 301 68 -3 67 -3 0 -295z m-9164 137
c59 -32 92 -95 93 -180 l1 -62 -136 -5 -135 -5 8 -31 c11 -45 48 -57 155 -53
l88 4 0 -45 0 -45 -55 -12 c-150 -31 -255 0 -300 87 -16 31 -20 59 -20 134 0
105 9 137 48 180 38 40 78 55 148 56 45 0 72 -6 105 -23z m305 8 c5 -13 9 -13
34 0 16 8 45 15 65 15 l35 0 0 -49 c0 -49 0 -49 -37 -55 -21 -4 -50 -12 -65
-18 l-28 -10 0 -165 0 -164 -62 3 -63 3 -3 215 c-1 118 0 220 2 227 8 19 115
18 122 -2z m315 -65 c10 -41 27 -119 39 -173 13 -58 26 -95 31 -90 5 5 25 81
45 168 20 88 38 163 41 167 6 11 121 10 127 0 7 -12 -100 -389 -119 -418 -8
-13 -33 -29 -55 -35 -51 -15 -113 1 -136 36 -13 20 -124 394 -124 418 0 4 30
7 67 5 l68 -3 16 -75z m487 -152 l2 -228 -65 0 -65 0 0 230 0 231 63 -3 62 -3
3 -227z m383 222 c12 -7 19 -21 19 -40 0 -55 -6 -60 -80 -60 -52 0 -71 -4 -83
-18 -22 -24 -32 -117 -18 -170 14 -52 38 -64 112 -55 58 7 69 -2 69 -53 0 -41
-13 -51 -83 -59 -106 -13 -190 30 -219 113 -14 42 -17 168 -5 224 9 45 50 96
92 114 36 16 168 18 196 4z m234 -220 l0 -225 -62 -3 -63 -3 0 231 0 231 63
-3 62 -3 0 -225z m378 216 c44 -18 95 -78 103 -120 3 -19 4 -75 3 -124 -3 -76
-8 -94 -31 -129 -33 -51 -87 -77 -158 -77 -73 -1 -103 8 -145 45 -41 36 -65
105 -65 188 0 153 66 230 198 231 34 0 77 -6 95 -14z m472 5 c28 -6 30 -10 33
-55 l3 -49 -89 7 c-70 6 -91 4 -100 -7 -15 -18 1 -33 86 -77 84 -44 112 -79
112 -136 0 -25 -7 -58 -15 -73 -29 -57 -126 -81 -244 -61 l-71 12 0 49 0 48
98 -2 c94 -2 97 -1 97 20 0 18 -18 33 -84 71 -97 55 -125 93 -117 155 5 40 36
83 71 97 23 10 176 11 220 1z m612 -2 c70 -26 112 -100 113 -196 l0 -63 -135
0 c-126 0 -135 -1 -135 -19 0 -10 9 -29 19 -42 18 -23 25 -24 125 -22 l106 2
0 -49 0 -48 -63 -11 c-126 -22 -196 -10 -256 44 -46 42 -61 89 -61 186 1 115
28 171 100 210 40 21 142 25 187 8z m323 -4 c0 -18 8 -18 40 0 33 19 130 19
157 0 19 -13 25 -13 57 0 47 20 145 20 174 -1 50 -34 56 -66 57 -259 l0 -180
-65 0 -65 0 -5 170 -5 170 -45 0 -45 0 -3 -172 -2 -173 -65 0 -65 0 0 149 c0
174 -7 201 -49 201 -62 0 -61 4 -61 -181 l0 -169 -65 0 -65 0 0 230 0 230 60
0 c47 0 60 -3 60 -15z m883 1 c42 -17 83 -66 97 -114 13 -49 13 -152 -1 -208
-22 -87 -119 -145 -219 -131 l-39 5 -3 -77 -3 -76 -62 -3 -63 -3 0 300 0 301
23 4 c12 3 31 7 42 9 49 11 198 6 228 -7z m307 -1 c0 -14 3 -14 30 0 16 8 45
15 65 15 l35 0 0 -49 0 -50 -56 -11 c-30 -6 -58 -18 -60 -25 -3 -7 -6 -82 -7
-167 l-2 -153 -65 0 -65 0 -3 215 c-1 118 0 220 2 227 8 20 126 18 126 -2z
m463 1 c39 -16 82 -61 96 -99 6 -16 11 -57 11 -93 l0 -64 -136 0 -136 0 7 -27
c12 -52 27 -58 143 -58 105 0 107 0 110 -24 8 -55 -4 -68 -71 -80 -129 -22
-201 -9 -258 48 -42 42 -59 91 -59 176 0 157 64 234 198 235 34 0 77 -6 95
-14z m477 5 c22 -6 25 -13 28 -55 l3 -49 -83 6 c-135 9 -143 -15 -28 -78 93
-51 120 -83 120 -140 0 -88 -47 -133 -148 -142 -66 -6 -172 11 -184 30 -5 6
-7 28 -6 47 l3 35 97 -4 c83 -3 99 -1 104 13 9 24 -10 42 -88 83 -38 20 -78
47 -88 60 -47 60 -32 151 30 184 27 15 55 19 125 18 49 -1 101 -4 115 -8z
m405 -11 c70 -34 75 -52 75 -259 l0 -181 -59 0 c-33 0 -61 4 -63 10 -2 6 -21
3 -48 -6 -78 -27 -157 -3 -187 57 -7 13 -13 47 -13 75 0 89 48 127 174 140 59
6 66 9 66 28 0 39 -19 46 -118 46 l-93 0 3 47 c4 57 12 61 137 62 65 1 94 -4
126 -19z m301 5 c5 -13 9 -13 34 0 16 8 43 15 60 15 29 0 30 -1 30 -49 0 -50
-9 -61 -50 -61 -11 0 -31 -5 -45 -12 l-25 -11 0 -164 0 -163 -65 0 -65 0 0
230 0 230 60 0 c44 0 62 -4 66 -15z m332 -195 c2 -112 0 -215 -3 -227 -5 -21
-11 -23 -70 -23 l-65 0 0 223 c0 123 3 227 7 231 4 4 34 6 68 4 l60 -3 3 -205z
m389 184 c56 -41 63 -72 63 -261 l0 -173 -59 0 c-33 0 -61 4 -63 10 -2 6 -21
3 -48 -6 -78 -27 -163 -4 -188 52 -15 32 -15 129 -1 156 15 29 84 56 162 64
53 5 67 10 67 23 0 41 -21 50 -120 53 l-95 3 0 45 c0 55 11 60 152 57 85 -2
106 -5 130 -23z m689 1 c57 -34 84 -90 84 -178 l0 -67 -135 0 c-79 0 -135 -4
-135 -10 0 -24 25 -60 50 -70 16 -7 65 -10 116 -8 l89 3 0 -45 0 -45 -55 -12
c-126 -26 -214 -11 -271 46 -47 46 -63 103 -57 202 8 143 73 208 207 209 51 0
73 -5 107 -25z m449 16 c28 -6 30 -10 33 -55 l3 -49 -86 6 c-145 10 -153 -11
-29 -78 103 -57 127 -88 121 -158 -8 -94 -88 -136 -230 -122 -97 9 -107 16
-107 71 l0 45 93 -7 c78 -5 95 -4 106 9 18 22 10 30 -74 77 -97 53 -125 87
-125 149 0 89 47 121 180 119 47 0 99 -3 115 -7z"/>
<path d="M7064 10635 c-12 -8 -23 -12 -26 -10 -3 3 -5 -2 -5 -10 0 -19 2 -19
23 2 11 12 19 14 21 6 2 -6 13 -9 23 -6 12 3 22 -1 26 -10 3 -8 17 -18 31 -22
14 -3 23 -9 20 -12 -8 -8 15 -29 41 -37 12 -4 22 -12 22 -17 0 -6 -6 -7 -12
-3 -8 4 -10 3 -5 -2 5 -5 14 -9 20 -9 7 0 11 -8 9 -18 -2 -11 4 -17 15 -17 19
0 45 -25 56 -51 4 -10 6 -10 6 -1 1 6 5 12 10 12 5 0 8 -8 7 -17 0 -11 6 -18
16 -18 10 0 25 -11 35 -25 16 -23 16 -24 0 -11 -14 11 -17 11 -17 -1 0 -17 20
-38 35 -38 5 0 4 4 -3 9 -11 7 -11 9 1 14 10 4 14 0 12 -11 -1 -9 13 -33 31
-52 19 -19 34 -38 34 -42 0 -4 7 -8 15 -8 8 0 15 -9 15 -20 0 -11 4 -20 9 -20
13 0 151 -142 151 -155 0 -5 14 -24 30 -42 17 -18 30 -41 30 -52 0 -12 5 -21
10 -21 6 0 10 -7 10 -15 0 -8 6 -15 14 -15 8 0 16 -7 20 -15 3 -8 1 -15 -4
-15 -6 0 -10 -9 -10 -20 0 -21 -16 -28 -22 -9 -2 6 -12 1 -22 -10 -11 -12 -14
-21 -8 -21 7 0 12 -9 12 -20 0 -11 -4 -20 -10 -20 -5 0 -10 -9 -10 -20 0 -11
-4 -20 -10 -20 -5 0 -10 9 -10 20 0 11 5 20 10 20 6 0 10 7 10 16 0 19 -60
-25 -85 -63 -16 -24 -16 -26 3 -41 16 -13 18 -20 9 -39 -6 -14 -19 -23 -33
-23 -12 0 -24 -6 -27 -12 -2 -7 -7 -10 -11 -7 -4 4 1 14 10 23 9 9 14 19 12
22 -3 2 -12 -4 -21 -14 -19 -20 -12 -62 9 -62 8 0 14 -4 14 -8 0 -11 -22 -32
-34 -32 -5 0 -1 7 10 15 18 13 17 14 -11 6 -16 -4 -36 -6 -42 -4 -7 3 -13 -1
-13 -8 0 -7 2 -10 5 -7 3 3 25 -13 48 -36 23 -23 62 -58 87 -76 25 -19 51 -40
58 -47 7 -7 34 -29 60 -50 26 -21 52 -42 58 -48 6 -5 34 -28 62 -50 60 -47 60
-44 33 -205 -11 -63 -29 -180 -41 -260 -65 -444 -66 -447 -108 -504 -75 -98
-91 -128 -98 -193 -3 -35 -4 -63 -2 -63 3 0 24 26 46 58 45 64 81 100 69 70
-3 -9 -18 -95 -32 -190 -14 -95 -29 -186 -33 -202 l-8 -29 -16 39 c-10 22 -25
57 -34 79 l-17 40 -7 -30 c-4 -16 -8 -48 -9 -71 -1 -51 42 -160 62 -156 23 4
691 273 703 283 7 5 15 35 18 67 4 31 13 102 21 157 83 575 186 1318 183 1325
-2 5 -106 92 -233 193 -187 150 -941 750 -1074 855 -19 15 -75 60 -125 99 -50
40 -93 73 -96 73 -3 0 -15 -7 -26 -15z"/>
<path d="M6000 10569 c-63 -25 -295 -119 -515 -208 -220 -89 -497 -201 -615
-248 -118 -47 -217 -88 -219 -90 -4 -3 -9 -31 -66 -413 -19 -129 -50 -338 -69
-465 -19 -126 -44 -291 -55 -365 -28 -191 -32 -238 -17 -243 8 -3 12 11 14 46
1 28 7 56 12 61 6 6 10 25 10 43 0 18 4 33 9 33 11 0 31 85 32 138 1 33 2 34
9 12 l8 -25 1 23 c1 13 9 36 20 50 10 15 24 43 30 63 7 21 20 39 31 42 13 3
17 11 14 24 -3 11 1 26 10 34 46 41 45 41 73 13 23 -23 32 -26 74 -21 32 4 49
2 52 -6 2 -8 28 -11 80 -9 43 1 77 -2 77 -7 0 -5 -10 -12 -22 -14 -13 -2 -4
-5 19 -6 23 0 48 -8 57 -16 16 -17 56 -20 56 -5 0 6 -7 10 -15 10 -22 0 -18
17 5 23 31 8 41 46 87 349 l17 118 40 -62 c34 -53 40 -59 47 -43 15 39 9 88
-16 132 l-26 43 28 11 c15 6 127 48 248 94 121 46 279 106 350 133 418 158
666 253 713 271 l54 21 -62 -75 c-34 -41 -59 -75 -56 -75 27 0 126 49 148 74
20 22 28 26 28 14 0 -15 110 -121 118 -114 2 2 -13 44 -33 92 -32 76 -45 95
-89 131 -61 50 -408 325 -510 403 l-71 56 -115 -47z"/>
<path d="M5070 8212 c-19 -26 -43 -56 -53 -67 -10 -11 -20 -29 -22 -40 -2 -11
-10 -56 -19 -100 -13 -69 -29 -176 -100 -660 l-11 -79 140 -106 c77 -59 360
-278 628 -488 l489 -381 56 24 c92 39 590 235 597 235 3 0 24 9 48 19 23 11
85 37 137 57 52 20 97 41 98 45 2 5 8 7 13 4 4 -3 20 2 34 11 14 9 25 13 25 9
0 -4 7 -1 16 6 9 7 25 15 37 16 11 2 23 6 26 10 3 3 -10 3 -29 -1 -19 -4 -45
-7 -57 -8 -12 -1 -19 -6 -17 -10 6 -10 -10 -11 -19 -1 -4 3 -22 8 -39 9 -30 3
-31 2 -10 -7 13 -5 28 -7 32 -4 5 3 11 2 14 -3 3 -5 -30 -8 -72 -8 -67 0 -78
2 -78 17 0 10 4 15 8 13 4 -3 16 0 25 5 10 6 13 11 6 11 -6 0 -13 12 -15 28
-2 21 -9 28 -30 30 -26 3 -41 22 -18 22 6 0 10 19 10 43 0 25 -4 37 -8 29 -6
-8 -13 7 -21 42 -7 31 -17 58 -22 61 -5 4 -9 14 -9 23 0 10 -9 23 -20 30 -18
11 -20 10 -20 -17 0 -16 -5 -31 -12 -33 -9 -3 -9 -6 0 -12 7 -4 12 -2 12 3 0
6 5 11 10 11 14 0 12 -38 -2 -42 -9 -3 -9 -6 0 -12 7 -4 12 -2 12 3 0 6 9 11
20 11 13 0 20 -7 20 -20 0 -11 -4 -20 -10 -20 -5 0 -10 5 -10 10 0 16 -18 11
-22 -6 -4 -20 -58 83 -59 111 0 11 -6 31 -14 45 -7 14 -11 37 -8 53 4 17 1 27
-6 27 -7 0 -9 5 -5 11 4 8 9 7 15 -2 7 -12 11 -11 24 2 14 14 14 17 1 28 -12
10 -23 10 -46 3 -28 -10 -31 -9 -60 34 -33 48 -36 49 -74 34 l-25 -9 24 -43
c28 -48 30 -58 14 -58 -6 0 -25 -7 -42 -14 -18 -8 -57 -24 -87 -34 -30 -11
-101 -38 -157 -60 l-102 -40 -58 47 c-54 44 -253 206 -405 330 -38 30 -68 60
-68 66 0 6 11 26 25 44 l24 34 -23 18 c-32 26 -37 24 -64 -16 -18 -28 -26 -34
-40 -26 -15 8 -75 57 -272 221 -25 20 -94 77 -155 125 -170 137 -185 149 -185
158 0 5 20 35 45 66 36 46 48 70 55 117 6 32 10 60 10 62 0 12 -21 -7 -50 -46z"/>
<path d="M4165 2860 c-24 -26 -32 -124 -15 -175 19 -58 91 -68 119 -16 17 31
14 163 -5 189 -20 29 -74 30 -99 2z"/>
<path d="M6457 2883 l-28 -4 3 -122 3 -122 37 -3 c52 -4 75 12 89 61 10 39 7
125 -7 160 -4 12 -63 43 -68 36 -1 -1 -14 -4 -29 -6z"/>
</g>
</svg>
